<svg width="142" height="24" viewBox="0 0 142 24" fill="none" xmlns="http://www.w3.org/2000/svg">
<path d="M11.768 23.128C7.77867 23.128 4.824 21.9973 2.904 19.736C2.22133 18.9253 1.66667 17.848 1.24 16.504C0.813333 15.16 0.6 13.528 0.6 11.608C0.6 9.688 0.909333 7.97067 1.528 6.456C2.168 4.92 3.032 3.736 4.12 2.904C6.232 1.34667 8.78133 0.567999 11.768 0.567999C12.6213 0.567999 13.4533 0.642666 14.264 0.792C15.0747 0.919999 15.6827 1.05867 16.088 1.208L16.664 1.432L16.568 1.752C15.1173 1.176 13.5173 0.887999 11.768 0.887999C9.50667 0.887999 7.61867 1.624 6.104 3.096C4.952 4.184 4.14133 5.784 3.672 7.896C3.39467 9.09067 3.256 10.552 3.256 12.28C3.256 14.008 3.50133 15.608 3.992 17.08C4.48267 18.5307 5.03733 19.608 5.656 20.312C6.296 21.016 7.064 21.5813 7.96 22.008C8.856 22.4133 9.57067 22.648 10.104 22.712C10.6373 22.776 11.2773 22.808 12.024 22.808C12.792 22.808 13.656 22.7333 14.616 22.584C15.576 22.4347 16.3013 22.296 16.792 22.168L17.528 21.944L17.624 22.264C16.0027 22.84 14.0507 23.128 11.768 23.128ZM23.294 23C22.4193 23 21.7473 22.808 21.278 22.424C20.83 22.04 20.5953 21.656 20.574 21.272L20.542 20.728V7H22.782V20.728C22.782 21.3467 22.8993 21.8267 23.134 22.168C23.39 22.488 23.6353 22.6587 23.87 22.68L24.254 22.744H25.246V23H23.294ZM20.734 3.416C20.478 3.16 20.35 2.84 20.35 2.456C20.35 2.072 20.478 1.752 20.734 1.496C20.99 1.21866 21.31 1.08 21.694 1.08C22.078 1.08 22.398 1.21866 22.654 1.496C22.9313 1.752 23.07 2.072 23.07 2.456C23.07 2.84 22.9313 3.16 22.654 3.416C22.398 3.672 22.078 3.8 21.694 3.8C21.31 3.8 20.99 3.672 20.734 3.416ZM40.4663 23C39.5916 23 38.9196 22.808 38.4503 22.424C38.0023 22.04 37.7676 21.656 37.7463 21.272L37.7143 20.728V10.68C37.7143 8.99467 37.2769 7.91733 36.4023 7.448C35.9543 7.23467 35.3996 7.128 34.7383 7.128C33.3729 7.128 32.1463 7.672 31.0583 8.76C29.9703 9.82667 29.4263 10.7867 29.4263 11.64V23H27.1863V7H29.4263V10.648C29.7889 9.73067 30.4609 8.87733 31.4423 8.088C32.4236 7.27733 33.5009 6.872 34.6743 6.872C35.8476 6.872 36.7969 6.98933 37.5223 7.224C38.2689 7.43733 38.8129 7.74667 39.1543 8.152C39.6876 8.81333 39.9543 9.66667 39.9543 10.712V20.728C39.9543 21.3467 40.0716 21.8267 40.3063 22.168C40.5623 22.488 40.8183 22.6587 41.0743 22.68L41.4263 22.744H42.4183V23H40.4663ZM45.8935 15.192C45.8935 17.8373 46.3522 19.7787 47.2695 21.016C48.2082 22.2533 49.4348 22.872 50.9495 22.872C53.0828 22.872 54.9815 22.552 56.6455 21.912L56.7415 22.136C55.0348 22.7973 53.1042 23.128 50.9495 23.128C48.8162 23.128 47.0775 22.488 45.7335 21.208C44.3895 19.928 43.7175 17.9547 43.7175 15.288C43.7175 12.6213 44.4215 10.552 45.8295 9.08C47.2375 7.608 49.0295 6.872 51.2055 6.872C52.9548 6.872 54.4268 7.39467 55.6215 8.44C56.8162 9.48533 57.4135 11.032 57.4135 13.08C57.4135 13.1867 57.4135 13.2933 57.4135 13.4H45.9895C45.9255 13.976 45.8935 14.5733 45.8935 15.192ZM55.2375 13.144C55.2162 11.096 54.8215 9.58133 54.0535 8.6C53.2855 7.61867 52.2935 7.128 51.0775 7.128C49.8615 7.128 48.7735 7.66133 47.8135 8.728C46.8748 9.79467 46.2775 11.2667 46.0215 13.144H55.2375ZM78.0135 10.68C78.0135 9.37867 77.8428 8.46133 77.5015 7.928C77.1602 7.39467 76.5095 7.128 75.5495 7.128C74.2695 7.128 73.1282 7.66133 72.1255 8.728C71.1442 9.79467 70.6535 10.7547 70.6535 11.608V23H68.4135V10.68C68.4135 9.37867 68.2428 8.46133 67.9015 7.928C67.5602 7.39467 66.8348 7.128 65.7255 7.128C64.6162 7.128 63.5602 7.64 62.5575 8.664C61.5762 9.688 61.0428 10.6373 60.9575 11.512V23H58.7175V7H60.9575V10.616C61.2988 9.69867 61.9282 8.84533 62.8455 8.056C63.7628 7.26667 64.7868 6.872 65.9175 6.872C67.0482 6.872 67.9442 6.97867 68.6055 7.192C69.2882 7.384 69.7682 7.69333 70.0455 8.12C70.3228 8.54667 70.4935 8.92 70.5575 9.24C70.6215 9.56 70.6535 10.008 70.6535 10.584C70.9948 9.66667 71.6135 8.824 72.5095 8.056C73.4055 7.26667 74.3655 6.872 75.3895 6.872C76.4135 6.872 77.2348 6.95733 77.8535 7.128C78.4722 7.29867 78.9308 7.49067 79.2295 7.704C79.5495 7.91733 79.7842 8.22667 79.9335 8.632C80.1042 9.03733 80.2002 9.368 80.2215 9.624C80.2428 9.88 80.2535 10.2427 80.2535 10.712V20.728C80.2535 21.3467 80.3708 21.8267 80.6055 22.168C80.8615 22.488 81.1175 22.6587 81.3735 22.68L81.7255 22.744H82.7175V23H80.7655C79.8908 23 79.2188 22.808 78.7495 22.424C78.3015 22.04 78.0668 21.656 78.0455 21.272L78.0135 20.728V10.68ZM96.9023 23C95.4516 23 94.4596 22.7227 93.9263 22.168C93.4356 21.6987 93.1903 21.2933 93.1903 20.952V20.28C92.1449 22.1787 90.4703 23.128 88.1663 23.128C85.4783 23.128 83.9529 21.912 83.5903 19.48C83.5476 19.224 83.5263 18.968 83.5263 18.712C83.5263 18.4347 83.5689 18.136 83.6543 17.816C83.7396 17.496 83.9849 17.144 84.3903 16.76C85.2009 15.992 86.9823 15.5227 89.7343 15.352C90.4169 15.288 91.0463 15.256 91.6223 15.256C92.1983 15.256 92.7209 15.2773 93.1903 15.32V10.008C93.1476 9.98667 93.1476 9.89067 93.1903 9.72C93.2329 9.528 93.1903 9.29333 93.0623 9.016C92.9556 8.71733 92.8063 8.42933 92.6143 8.152C92.4223 7.87467 92.0809 7.64 91.5903 7.448C91.0996 7.23467 90.4596 7.128 89.6703 7.128C88.8809 7.128 87.9529 7.27733 86.8863 7.576C85.8409 7.85333 85.0729 8.13067 84.5823 8.408L84.4543 8.184C86.3529 7.30933 88.2836 6.872 90.2463 6.872C92.4436 6.872 93.8943 7.26667 94.5983 8.056C95.1529 8.67467 95.4303 9.32533 95.4303 10.008V20.728C95.4303 21.3467 95.5476 21.8267 95.7823 22.168C96.0383 22.488 96.2943 22.6587 96.5503 22.68L96.9023 22.744H97.8943V23H96.9023ZM88.6783 22.872C89.8089 22.872 90.8223 22.488 91.7183 21.72C92.6356 20.9307 93.1263 20.1733 93.1903 19.448V15.576C92.6143 15.5333 92.0276 15.512 91.4303 15.512C90.8543 15.512 90.2783 15.544 89.7023 15.608C88.0809 15.8 87.0249 16.1627 86.5343 16.696C86.0436 17.2293 85.7983 17.9653 85.7983 18.904C85.7983 19.0747 85.8089 19.2667 85.8303 19.48C86.0223 21.7413 86.9716 22.872 88.6783 22.872Z" fill="#FF6E05"/>
<path d="M100.344 23H99.96L109.528 0.599998L109.88 0.439999L117.944 23H115.224L112.728 15.96H103.384L100.344 23ZM108.536 4.056L103.512 15.64H112.632L108.536 4.056ZM128.905 8.12C128.564 7.84267 128.009 7.608 127.241 7.416C126.495 7.224 125.929 7.128 125.545 7.128C125.161 7.128 124.937 7.128 124.873 7.128C123.721 7.14933 122.889 7.448 122.377 8.024C121.865 8.57867 121.609 9.208 121.609 9.912C121.609 10.616 121.833 11.2133 122.281 11.704C122.729 12.1733 123.284 12.5467 123.945 12.824C124.628 13.08 125.353 13.3787 126.121 13.72C126.911 14.0613 127.636 14.4133 128.297 14.776C128.98 15.1173 129.545 15.6293 129.993 16.312C130.441 16.9733 130.665 17.8053 130.665 18.808C130.665 19.8107 130.313 20.664 129.609 21.368C128.905 22.072 128.116 22.5413 127.241 22.776C126.388 23.0107 125.46 23.128 124.457 23.128C122.281 23.128 120.649 22.648 119.561 21.688L119.753 21.496C120.18 21.9013 120.809 22.232 121.641 22.488C122.495 22.744 123.316 22.872 124.105 22.872C125.364 22.872 126.399 22.5307 127.209 21.848C128.041 21.144 128.457 20.28 128.457 19.256C128.457 18.2107 128.148 17.3787 127.529 16.76C126.911 16.12 126.153 15.6293 125.257 15.288C124.383 14.9253 123.497 14.5733 122.601 14.232C121.705 13.8693 120.948 13.3787 120.329 12.76C119.711 12.12 119.401 11.384 119.401 10.552C119.401 9.72 119.593 9.048 119.977 8.536C120.361 8.00267 120.873 7.62933 121.513 7.416C122.601 7.05333 123.689 6.872 124.777 6.872C126.612 6.872 128.041 7.21333 129.065 7.896L128.905 8.12ZM132.901 7.256V7H133.573V3.8H135.813V7H140.709V7.256H135.813V18.904C135.813 20.2907 135.963 21.2933 136.261 21.912C136.581 22.5307 137.232 22.84 138.213 22.84C139.216 22.84 140.229 22.6373 141.253 22.232L141.349 22.488C140.283 22.8933 139.056 23.096 137.669 23.096C136.304 23.096 135.28 22.8187 134.597 22.264C133.915 21.688 133.573 20.5573 133.573 18.872V7.256H132.901Z" fill="black"/>
</svg>
